<svg width="119" height="163" viewBox="0 0 119 163" fill="none" xmlns="http://www.w3.org/2000/svg">
<path opacity="0.5" d="M39.6156 64.7252H53.8156C58.8823 64.7252 62.4823 63.5252 64.6156 61.1252C66.8823 58.7252 68.0156 55.4585 68.0156 51.3252C68.0156 46.1252 66.8823 42.3919 64.6156 40.1252C62.349 37.7252 58.949 36.5252 54.4156 36.5252C49.8823 36.5252 46.4823 37.7252 44.2156 40.1252C41.949 42.3919 40.8156 46.1252 40.8156 51.3252V54.7252H0.815625V13.9252C3.21563 12.5919 6.08229 11.1919 9.41563 9.72519C12.8823 8.12519 16.949 6.65852 21.6156 5.32519C26.2823 3.99186 31.6156 2.92519 37.6156 2.12519C43.6156 1.32519 50.4156 0.925184 58.0156 0.925184C76.8156 0.925184 91.0156 4.79185 100.616 12.5252C110.349 20.2585 115.216 31.1919 115.216 45.3252C115.216 49.8585 114.616 53.9252 113.416 57.5252C112.216 60.9919 110.682 64.0585 108.816 66.7252C107.082 69.3919 105.082 71.7252 102.816 73.7252C100.682 75.7252 98.6823 77.4585 96.8156 78.9252V80.9252C98.949 82.2585 101.216 83.8585 103.616 85.7252C106.149 87.5919 108.482 89.8585 110.616 92.5252C112.749 95.1919 114.549 98.3919 116.016 102.125C117.482 105.859 118.216 110.192 118.216 115.125C118.216 122.192 116.949 128.659 114.416 134.525C111.882 140.259 108.016 145.192 102.816 149.325C97.749 153.459 91.2823 156.659 83.4156 158.925C75.6823 161.059 66.549 162.125 56.0156 162.125C48.8156 162.125 42.349 161.659 36.6156 160.725C31.0156 159.925 25.949 158.925 21.4156 157.725C17.0156 156.392 13.0823 154.925 9.61563 153.325C6.28229 151.592 3.34896 149.925 0.815625 148.325V106.125H40.8156V111.725C40.8156 116.925 41.949 120.725 44.2156 123.125C46.4823 125.392 49.8823 126.525 54.4156 126.525C58.949 126.525 62.349 125.325 64.6156 122.925C66.8823 120.525 68.0156 116.125 68.0156 109.725C68.0156 104.792 66.8823 101.125 64.6156 98.7252C62.4823 96.1919 58.949 94.9252 54.0156 94.9252H39.6156V64.7252Z" fill="#F2FEFF"/>
</svg>
