<svg width="128" height="159" viewBox="0 0 128 159" fill="none" xmlns="http://www.w3.org/2000/svg">
<path opacity="0.5" d="M0.415625 128.275C10.8156 119.475 20.349 111.142 29.0156 103.275C37.6823 95.275 45.149 87.9417 51.4156 81.275C57.6823 74.475 62.549 68.5417 66.0156 63.475C69.4823 58.275 71.2156 54.075 71.2156 50.875C71.2156 45.675 70.0823 41.9417 67.8156 39.675C65.549 37.275 62.149 36.075 57.6156 36.075C53.0823 36.075 49.6823 37.275 47.4156 39.675C45.149 41.9417 44.0156 45.675 44.0156 50.875V60.875H4.01563V13.475C7.48229 11.7417 11.2823 10.2083 15.4156 8.87499C19.549 7.40832 24.4156 6.00833 30.0156 4.67499C35.6156 3.34166 41.549 2.34166 47.8156 1.675C54.2156 0.874992 60.6823 0.474989 67.2156 0.474989C86.149 0.474989 100.282 4.34166 109.616 12.075C118.949 19.675 123.616 30.9417 123.616 45.875C123.616 54.0083 121.682 61.8083 117.816 69.275C114.082 76.6083 109.282 83.675 103.416 90.475C97.549 97.1417 91.0823 103.475 84.0156 109.475C77.0823 115.342 70.4156 120.875 64.0156 126.075H88.4156V114.675H127.416V158.875H0.415625V128.275Z" fill="#F2FEFF"/>
</svg>
