<svg width="134" height="162" viewBox="0 0 134 162" fill="none" xmlns="http://www.w3.org/2000/svg">
<path opacity="0.5" d="M123.985 42.3C119.318 40.8333 113.585 39.3667 106.785 37.9C99.9852 36.4333 92.5852 35.7 84.5852 35.7C74.9852 35.7 67.9852 38.3 63.5852 43.5C59.3185 48.5667 57.1852 55.1 57.1852 63.1V68.9C61.1852 67.4333 65.8518 66.1667 71.1852 65.1C76.5185 63.9 81.6518 63.3 86.5852 63.3C92.5852 63.3 98.3852 63.9667 103.985 65.3C109.718 66.6333 114.785 69.0333 119.185 72.5C123.585 75.8333 127.118 80.3667 129.785 86.1C132.452 91.8333 133.785 99.1 133.785 107.9C133.785 126.433 128.319 139.967 117.385 148.5C106.452 157.033 90.9185 161.3 70.7852 161.3C59.9852 161.3 50.2518 159.9 41.5852 157.1C32.9185 154.3 25.5185 150.033 19.3852 144.3C13.3852 138.567 8.71849 131.367 5.38516 122.7C2.05182 113.9 0.385156 103.567 0.385156 91.7C0.385156 75.3 2.18516 61.3 5.78516 49.7C9.51849 38.1 14.7185 28.6333 21.3852 21.3C28.0518 13.9667 35.9852 8.63332 45.1852 5.29999C54.3852 1.83332 64.5852 0.0999889 75.7852 0.0999889C81.5185 0.0999889 86.7852 0.433322 91.5852 1.09999C96.3852 1.63332 100.785 2.43332 104.785 3.49999C108.785 4.43333 112.319 5.49999 115.385 6.69999C118.585 7.89999 121.452 9.03332 123.985 10.1V42.3ZM70.1852 94.7C68.5852 94.7 66.6518 94.9 64.3852 95.3C62.1185 95.7 59.7185 96.3667 57.1852 97.3V110.9C57.1852 116.1 58.3185 119.9 60.5852 122.3C62.8518 124.567 66.2518 125.7 70.7852 125.7C75.3185 125.7 78.7185 124.567 80.9852 122.3C83.2518 119.9 84.3852 116.1 84.3852 110.9C84.3852 100.1 79.6518 94.7 70.1852 94.7Z" fill="#F2FEFF"/>
</svg>
