<svg width="128" height="159" viewBox="0 0 128 159" fill="none" xmlns="http://www.w3.org/2000/svg">
<path opacity="0.5" d="M0.165625 127.9C10.5656 119.1 20.099 110.767 28.7656 102.9C37.4323 94.9 44.899 87.5667 51.1656 80.9C57.4323 74.1 62.299 68.1667 65.7656 63.1C69.2323 57.9 70.9656 53.7 70.9656 50.5C70.9656 45.3 69.8323 41.5667 67.5656 39.3C65.299 36.9 61.899 35.7 57.3656 35.7C52.8323 35.7 49.4323 36.9 47.1656 39.3C44.899 41.5667 43.7656 45.3 43.7656 50.5V60.5H3.76563V13.1C7.23229 11.3667 11.0323 9.83333 15.1656 8.49999C19.299 7.03332 24.1656 5.63333 29.7656 4.29999C35.3656 2.96666 41.299 1.96666 47.5656 1.3C53.9656 0.499992 60.4323 0.0999889 66.9656 0.0999889C85.899 0.0999889 100.032 3.96666 109.366 11.7C118.699 19.3 123.366 30.5667 123.366 45.5C123.366 53.6333 121.432 61.4333 117.566 68.9C113.832 76.2333 109.032 83.3 103.166 90.1C97.299 96.7667 90.8323 103.1 83.7656 109.1C76.8323 114.967 70.1656 120.5 63.7656 125.7H88.1656V114.3H127.166V158.5H0.165625V127.9Z" fill="#F2FEFF"/>
</svg>
