<svg width="123" height="161" viewBox="0 0 123 161" fill="none" xmlns="http://www.w3.org/2000/svg">
<path opacity="0.5" d="M7.82227 0.399989H114.222V39.2H47.8223L46.0223 60C49.4889 58 53.8223 56.4 59.0223 55.2C64.2223 53.8667 68.9556 53.2 73.2223 53.2C80.9556 53.2 87.8889 54.4 94.0223 56.8C100.156 59.2 105.289 62.6 109.422 67C113.556 71.2667 116.689 76.4667 118.822 82.6C121.089 88.6 122.222 95.2667 122.222 102.6C122.222 121.133 116.756 135.467 105.822 145.6C94.8889 155.733 79.4223 160.8 59.4223 160.8C52.0889 160.8 45.4223 160.333 39.4223 159.4C33.5556 158.6 28.2223 157.467 23.4223 156C18.6223 154.667 14.3556 153.133 10.6223 151.4C7.02227 149.667 3.82227 148 1.02227 146.4V106.2H47.4223C47.4223 110.867 48.0889 114.467 49.4223 117C50.8889 119.533 53.8223 120.8 58.2223 120.8C62.0889 120.8 64.7556 119.4 66.2223 116.6C67.8223 113.8 68.6223 109.2 68.6223 102.8C68.6223 96 67.8223 91.0667 66.2223 88C64.7556 84.9333 61.9556 83.4 57.8223 83.4C53.8223 83.4 51.0889 84.6667 49.6223 87.2C48.1556 89.6 47.4223 92.3333 47.4223 95.4H9.42227L0.422266 81.6L7.82227 0.399989Z" fill="#00D5F1"/>
</svg>
