<svg width="119" height="162" viewBox="0 0 119 162" fill="none" xmlns="http://www.w3.org/2000/svg">
<path opacity="0.5" d="M39.4376 64.1997H53.6376C58.7043 64.1997 62.3043 62.9997 64.4377 60.5997C66.7043 58.1997 67.8376 54.933 67.8376 50.7997C67.8376 45.5997 66.7043 41.8663 64.4377 39.5997C62.171 37.1997 58.771 35.9997 54.2377 35.9997C49.7043 35.9997 46.3043 37.1997 44.0376 39.5997C41.771 41.8663 40.6376 45.5997 40.6376 50.7997V54.1997H0.637647V13.3997C3.03765 12.0663 5.90431 10.6663 9.23765 9.19968C12.7043 7.59967 16.771 6.13301 21.4376 4.79967C26.1043 3.46634 31.4376 2.39968 37.4376 1.59968C43.4376 0.799674 50.2376 0.399672 57.8376 0.399672C76.6377 0.399672 90.8377 4.26634 100.438 11.9997C110.171 19.733 115.038 30.6663 115.038 44.7997C115.038 49.333 114.438 53.3997 113.238 56.9997C112.038 60.4663 110.504 63.533 108.638 66.1997C106.904 68.8663 104.904 71.1997 102.638 73.1997C100.504 75.1997 98.5043 76.933 96.6376 78.3997V80.3997C98.771 81.733 101.038 83.333 103.438 85.1997C105.971 87.0663 108.304 89.333 110.438 91.9997C112.571 94.6663 114.371 97.8663 115.838 101.6C117.304 105.333 118.038 109.666 118.038 114.6C118.038 121.666 116.771 128.133 114.238 134C111.704 139.733 107.838 144.666 102.638 148.8C97.571 152.933 91.1043 156.133 83.2376 158.4C75.5043 160.533 66.371 161.6 55.8376 161.6C48.6376 161.6 42.171 161.133 36.4376 160.2C30.8376 159.4 25.771 158.4 21.2376 157.2C16.8376 155.866 12.9043 154.4 9.43765 152.8C6.10431 151.066 3.17098 149.4 0.637647 147.8V105.6H40.6376V111.2C40.6376 116.4 41.771 120.2 44.0376 122.6C46.3043 124.866 49.7043 126 54.2377 126C58.771 126 62.171 124.8 64.4377 122.4C66.7043 120 67.8376 115.6 67.8376 109.2C67.8376 104.266 66.7043 100.6 64.4377 98.1997C62.3043 95.6663 58.771 94.3997 53.8377 94.3997H39.4376V64.1997Z" fill="#00D5F1"/>
</svg>
