<svg width="48" height="48" viewBox="0 0 48 48" fill="none" xmlns="http://www.w3.org/2000/svg">
<path fill-rule="evenodd" clip-rule="evenodd" d="M23.9251 8.125C25.0067 8.125 25.8835 9.00178 25.8835 10.0833V37.5C25.8835 38.5816 25.0067 39.4583 23.9251 39.4583C22.8436 39.4583 21.9668 38.5816 21.9668 37.5V10.0833C21.9668 9.00178 22.8436 8.125 23.9251 8.125Z" fill="#6226A8"/>
<path fill-rule="evenodd" clip-rule="evenodd" d="M8.8314 22.4066C9.59617 21.6418 10.8361 21.6418 11.6009 22.4066L23.9245 34.7302L36.2481 22.4066C37.0128 21.6418 38.2528 21.6418 39.0176 22.4066C39.7823 23.1714 39.7823 24.4113 39.0176 25.1761L25.3092 38.8844C24.5445 39.6492 23.3045 39.6492 22.5397 38.8844L8.8314 25.1761C8.06662 24.4113 8.06662 23.1714 8.8314 22.4066Z" fill="#6226A8"/>
</svg>
