<svg width="38" height="37" viewBox="0 0 38 37" fill="none" xmlns="http://www.w3.org/2000/svg">
<path fill-rule="evenodd" clip-rule="evenodd" d="M29.2646 8.16004C29.8667 8.7621 29.8667 9.73823 29.2646 10.3403L10.7646 28.8403C10.1625 29.4423 9.18641 29.4423 8.58436 28.8403C7.9823 28.2382 7.9823 27.2621 8.58436 26.66L27.0844 8.16004C27.6864 7.55798 28.6625 7.55798 29.2646 8.16004Z" fill="#6226A8"/>
<path fill-rule="evenodd" clip-rule="evenodd" d="M8.58436 8.16004C9.18641 7.55798 10.1625 7.55798 10.7646 8.16004L29.2646 26.66C29.8667 27.2621 29.8667 28.2382 29.2646 28.8403C28.6625 29.4423 27.6864 29.4423 27.0844 28.8403L8.58436 10.3403C7.9823 9.73823 7.9823 8.7621 8.58436 8.16004Z" fill="#6226A8"/>
</svg>
