<svg width="42" height="34" viewBox="0 0 42 34" fill="none" xmlns="http://www.w3.org/2000/svg">
<path fill-rule="evenodd" clip-rule="evenodd" d="M6.79704 6.5C5.65487 6.5 4.72895 7.17157 4.72895 8V29C4.72895 29.8284 5.65487 30.5 6.79704 30.5H35.7503C36.8925 30.5 37.8184 29.8284 37.8184 29V8C37.8184 7.17157 36.8925 6.5 35.7503 6.5H6.79704ZM0.592773 8C0.592773 5.51472 3.37052 3.5 6.79704 3.5H35.7503C39.1768 3.5 41.9546 5.51472 41.9546 8V29C41.9546 31.4853 39.1768 33.5 35.7503 33.5H6.79704C3.37052 33.5 0.592773 31.4853 0.592773 29V8Z" fill="white"/>
<path fill-rule="evenodd" clip-rule="evenodd" d="M29.546 0.5C30.6882 0.5 31.6141 1.17157 31.6141 2V8C31.6141 8.82843 30.6882 9.5 29.546 9.5C28.4039 9.5 27.4779 8.82843 27.4779 8V2C27.4779 1.17157 28.4039 0.5 29.546 0.5Z" fill="white"/>
<path fill-rule="evenodd" clip-rule="evenodd" d="M13.0013 0.5C14.1435 0.5 15.0694 1.17157 15.0694 2V8C15.0694 8.82843 14.1435 9.5 13.0013 9.5C11.8591 9.5 10.9332 8.82843 10.9332 8V2C10.9332 1.17157 11.8591 0.5 13.0013 0.5Z" fill="white"/>
<path fill-rule="evenodd" clip-rule="evenodd" d="M0.592773 14C0.592773 13.1716 1.51869 12.5 2.66086 12.5H39.8865C41.0286 12.5 41.9546 13.1716 41.9546 14C41.9546 14.8284 41.0286 15.5 39.8865 15.5H2.66086C1.51869 15.5 0.592773 14.8284 0.592773 14Z" fill="white"/>
</svg>
